<svg width="40" height="40" viewBox="0 0 40 40" fill="none" xmlns="http://www.w3.org/2000/svg">
<path d="M34.1214 3H5.21552C3.99316 3 3 3.99316 3 5.21552V34.1145C3 35.3368 3.99316 36.33 5.21552 36.33H34.1145C35.3368 36.33 36.33 35.3368 36.33 34.1145V5.21552C36.3369 3.99316 35.3437 3 34.1214 3ZM29.5515 14.8207C29.5445 14.8277 29.5376 14.8277 29.5376 14.8346C29.5445 14.9457 29.5515 15.0638 29.5515 15.1749C29.5584 15.2999 29.5584 15.418 29.5584 15.543C29.5584 23.0855 23.4397 29.2042 15.8972 29.2042C13.3067 29.2042 10.8828 28.4819 8.81312 27.2248C8.81312 27.2248 12.7233 27.5582 15.4111 25.0579C15.4111 25.0579 12.2163 24.6412 11.0147 21.6756C11.0147 21.6756 12.4038 21.9048 13.2372 21.6756C13.2372 21.6756 9.39652 20.0991 9.48681 16.9043C9.48681 16.9043 10.8272 17.4599 11.4801 17.4599C11.4801 17.4599 8.0561 15.0985 10.091 10.7022C10.091 10.7022 12.7302 15.7931 19.9532 15.8417L19.9602 15.8347C19.9046 15.55 19.8838 15.2583 19.8838 14.9596C19.8838 12.2857 22.0507 10.1188 24.7246 10.1188C26.0928 10.1188 27.329 10.6883 28.2041 11.5982L28.2388 11.5773C28.2388 11.5773 28.5236 11.5009 28.9194 11.3898C29.5862 11.1953 30.5516 10.9036 30.9266 10.7022C30.9266 10.7022 30.5377 12.1816 29.3292 13.0289C29.2945 13.0566 29.2528 13.0844 29.2111 13.1053C29.2111 13.1053 29.2598 13.1053 29.3431 13.0983C29.7112 13.0775 30.7808 12.9802 31.76 12.4524C31.7253 12.508 30.7113 13.8623 29.5515 14.8207Z" fill="#020202"/>
</svg>
