<svg width="40" height="40" viewBox="0 0 40 40" fill="none" xmlns="http://www.w3.org/2000/svg">
<path fill-rule="evenodd" clip-rule="evenodd" d="M7.16626 3.92578H32.6267V34.9412H7.16626V3.92578Z" fill="white"/>
<path d="M34.4783 3H4.85167C3.82902 3 3 3.82902 3 4.85167V34.4783C3 35.501 3.82902 36.33 4.85167 36.33H34.4783C35.501 36.33 36.33 35.501 36.33 34.4783V4.85167C36.33 3.82902 35.501 3 34.4783 3Z" fill="#E42B28"/>
<path fill-rule="evenodd" clip-rule="evenodd" d="M31.3337 13.9851C31.4879 14.6044 31.7008 17.9972 31.7008 19.2919V19.5752C31.7008 20.87 31.4879 24.2627 31.3337 24.8821C30.8754 26.7241 30.0149 27.4337 28.4312 27.6897C27.5179 27.8244 23.1355 27.9975 19.6571 27.9975H19.6729C16.1945 27.9975 11.8121 27.8244 10.8987 27.6897C9.31509 27.4332 8.45453 26.7241 7.99624 24.8821C7.84209 24.2627 7.62915 20.87 7.62915 19.5752V19.2919C7.62915 17.9972 7.84209 14.6044 7.99624 13.9851C8.45453 12.1431 9.31509 11.4339 10.8987 11.1775C11.8121 11.0428 16.1945 10.8696 19.6729 10.8696H19.6571C23.1355 10.8696 27.5179 11.0428 28.4312 11.1775C30.0149 11.4335 30.8754 12.1431 31.3337 13.9846V13.9851ZM17.1652 15.9626V22.8254L23.5595 19.3128L17.1652 15.9631V15.9626Z" fill="#FFFFFE"/>
</svg>
