<svg width="16" height="16" viewBox="0 0 16 16" fill="none" xmlns="http://www.w3.org/2000/svg">
<path fill-rule="evenodd" clip-rule="evenodd" d="M8.01 3.00101C7.80559 2.99928 7.6056 3.06033 7.4371 3.17606C7.2686 3.29179 7.13975 3.45658 7.068 3.64799L4.078 11.621C4.0246 11.745 3.99693 11.8785 3.99666 12.0135C3.99639 12.1484 4.02353 12.282 4.07642 12.4062C4.12932 12.5303 4.20688 12.6424 4.3044 12.7358C4.40192 12.8291 4.51737 12.9016 4.64375 12.949C4.77014 12.9964 4.90482 13.0176 5.03965 13.0114C5.17447 13.0052 5.30663 12.9716 5.42811 12.9128C5.54959 12.8539 5.65786 12.7711 5.74637 12.6692C5.83487 12.5673 5.90177 12.4485 5.943 12.32L6.437 11.001H9.562L10.057 12.32C10.0987 12.448 10.1659 12.5663 10.2545 12.6676C10.3431 12.769 10.4514 12.8513 10.5727 12.9097C10.694 12.9681 10.8259 13.0013 10.9605 13.0074C11.095 13.0134 11.2293 12.9921 11.3554 12.9447C11.4814 12.8974 11.5966 12.8251 11.6939 12.7321C11.7913 12.6391 11.8687 12.5273 11.9217 12.4035C11.9747 12.2797 12.002 12.1464 12.002 12.0118C12.0021 11.8771 11.9749 11.7439 11.922 11.62L8.932 3.64799C8.86145 3.45977 8.73565 3.29726 8.57112 3.1818C8.40658 3.06634 8.21099 3.00335 8.01 3.00101V3.00101ZM8.002 6.835L8.816 9.00895H7.186L8.002 6.835Z" fill="black"/>
</svg>
