<svg width="110" height="110" viewBox="0 0 110 110" fill="none" xmlns="http://www.w3.org/2000/svg">
<path d="M55 110C85.3757 110 110 85.3757 110 55C110 24.6243 85.3757 0 55 0C24.6243 0 0 24.6243 0 55C0 85.3757 24.6243 110 55 110Z" fill="#25B7D3"/>
<path d="M39 67C39 68.0609 39.4214 69.0783 40.1716 69.8284C40.9217 70.5786 41.9391 71 43 71H67L79 83V71H83C84.0609 71 85.0783 70.5786 85.8284 69.8284C86.5786 69.0783 87 68.0609 87 67V35C87 33.9391 86.5786 32.9217 85.8284 32.1716C85.0783 31.4214 84.0609 31 83 31H43C41.9391 31 40.9217 31.4214 40.1716 32.1716C39.4214 32.9217 39 33.9391 39 35V67Z" fill="#6FDAF1"/>
<path d="M71 59C71 60.0609 70.5786 61.0783 69.8284 61.8284C69.0783 62.5786 68.0609 63 67 63H43L31 75V63H27C25.9391 63 24.9217 62.5786 24.1716 61.8284C23.4214 61.0783 23 60.0609 23 59V27C23 25.9391 23.4214 24.9217 24.1716 24.1716C24.9217 23.4214 25.9391 23 27 23H67C68.0609 23 69.0783 23.4214 69.8284 24.1716C70.5786 24.9217 71 25.9391 71 27V59Z" fill="#F0F1F1"/>
<path d="M70.335 24.798C69.9717 24.2454 69.4767 23.7918 68.8945 23.4779C68.3124 23.1641 67.6614 22.9998 67 23H27C25.9391 23 24.9217 23.4214 24.1716 24.1716C23.4214 24.9217 23 25.9391 23 27V59C23 60.0609 23.4214 61.0783 24.1716 61.8284C24.9217 62.5786 25.9391 63 27 63H31V64.134L70.335 24.798V24.798Z" fill="white"/>
<path d="M35 47C37.2091 47 39 45.2091 39 43C39 40.7909 37.2091 39 35 39C32.7909 39 31 40.7909 31 43C31 45.2091 32.7909 47 35 47Z" fill="#21B2D1"/>
<path d="M47 47C49.2091 47 51 45.2091 51 43C51 40.7909 49.2091 39 47 39C44.7909 39 43 40.7909 43 43C43 45.2091 44.7909 47 47 47Z" fill="#21B2D1"/>
<path d="M59 47C61.2091 47 63 45.2091 63 43C63 40.7909 61.2091 39 59 39C56.7909 39 55 40.7909 55 43C55 45.2091 56.7909 47 59 47Z" fill="#21B2D1"/>
</svg>
