<svg width="64" height="64" viewBox="0 0 64 64" fill="none" xmlns="http://www.w3.org/2000/svg">
<g clip-path="url(#clip0_202_2)">
<path d="M27 18C30.866 18 34 14.866 34 11C34 7.13401 30.866 4 27 4C23.134 4 20 7.13401 20 11C20 14.866 23.134 18 27 18Z" fill="#B7DBF9"/>
<path d="M43.07 32.6098V32.5298L35.56 21.3298L35.43 21.1498C35.0759 20.6948 34.6013 20.3484 34.06 20.1498C33.7171 20.0426 33.3591 19.992 33 19.9998H20V20.1998C19.4233 20.4242 18.9282 20.8182 18.58 21.3298L11 32.5298L10.95 32.6098C10.6615 33.0163 10.5045 33.5014 10.5 33.9998C10.5 34.6629 10.7634 35.2987 11.2322 35.7676C11.7011 36.2364 12.337 36.4998 13 36.4998H19.34L19.13 41.6298L15.9 44.4798L15.78 44.5898C15.3484 44.9677 15.0275 45.4556 14.8514 46.0015C14.6753 46.5475 14.6506 47.131 14.78 47.6898L18.06 61.6298C18.2561 62.3768 18.7328 63.0193 19.3907 63.4237C20.0487 63.8281 20.8372 63.9632 21.5923 63.8009C22.3473 63.6385 23.0107 63.1913 23.4442 62.5522C23.8778 61.9131 24.0482 61.1314 23.92 60.3698L21.59 48.3698L25.85 44.9998H28.15L32.4 48.3398L30.07 60.3398C29.9418 61.1014 30.1122 61.8831 30.5458 62.5222C30.9793 63.1613 31.6427 63.6085 32.3977 63.7709C33.1528 63.9332 33.9413 63.7981 34.5993 63.3937C35.2572 62.9893 35.7339 62.3468 35.93 61.5998L39.21 47.6598C39.3369 47.0994 39.3111 46.5151 39.1352 45.9681C38.9593 45.421 38.6398 44.9312 38.21 44.5498L38.09 44.4498L34.86 41.5998L34.7 37.4998H31C30.0717 37.4998 29.1815 37.1311 28.5251 36.4747C27.8687 35.8183 27.5 34.9281 27.5 33.9998C27.5 33.0716 27.8687 32.1813 28.5251 31.5249C29.1815 30.8686 30.0717 30.4998 31 30.4998H34.42V29.6198L35.89 31.4998H31C30.337 31.4998 29.7011 31.7632 29.2322 32.232C28.7634 32.7009 28.5 33.3368 28.5 33.9998C28.5 34.6629 28.7634 35.2987 29.2322 35.7676C29.7011 36.2364 30.337 36.4998 31 36.4998H41C41.4962 36.5005 41.9809 36.3506 42.39 36.0698C42.6622 35.8876 42.8957 35.6534 43.0773 35.3808C43.2588 35.1081 43.3848 34.8023 43.448 34.4809C43.5111 34.1595 43.5103 33.8288 43.4454 33.5077C43.3806 33.1866 43.253 32.8815 43.07 32.6098V32.6098ZM18.14 31.4998L19.61 29.6498L19.54 31.4998H18.14Z" fill="#88B8F9"/>
<path d="M19 16H3C1.89543 16 1 16.8954 1 18V30C1 31.1046 1.89543 32 3 32H19C20.1046 32 21 31.1046 21 30V18C21 16.8954 20.1046 16 19 16Z" fill="#2F79F0"/>
<path d="M50 36H2C1.44772 36 1 36.4477 1 37V39C1 39.5523 1.44772 40 2 40H50C50.5523 40 51 39.5523 51 39V37C51 36.4477 50.5523 36 50 36Z" fill="#2F79F0"/>
<path d="M11 64H7L6 44H12L11 64Z" fill="#0C3798"/>
<path d="M45 64H41L40 44H46L45 64Z" fill="#0C3798"/>
<path d="M2 40H50V46C50 46.5304 49.7893 47.0391 49.4142 47.4142C49.0391 47.7893 48.5304 48 48 48H4C3.46957 48 2.96086 47.7893 2.58579 47.4142C2.21071 47.0391 2 46.5304 2 46V40Z" fill="#0C3798"/>
<path d="M11 26C12.1046 26 13 25.1046 13 24C13 22.8954 12.1046 22 11 22C9.89543 22 9 22.8954 9 24C9 25.1046 9.89543 26 11 26Z" fill="#FFFEFF"/>
<path d="M36 34H18V36H36V34Z" fill="#F8CF6D"/>
<path d="M14 33.9999H8L8.81 30.7599C8.86475 30.5381 8.99385 30.3416 9.17579 30.2033C9.35774 30.0651 9.58157 29.9933 9.81 29.9999H12.25C12.4784 29.9933 12.7023 30.0651 12.8842 30.2033C13.0662 30.3416 13.1952 30.5381 13.25 30.7599L14 33.9999Z" fill="#B7DBF9"/>
<path d="M16 34H6V36H16V34Z" fill="#0C3798"/>
<path d="M51.07 5.92993C50.8854 5.93089 50.7046 5.87686 50.5508 5.77474C50.397 5.67261 50.277 5.52701 50.2063 5.35649C50.1355 5.18596 50.117 4.99822 50.1533 4.81718C50.1896 4.63615 50.279 4.47001 50.41 4.33993V4.33993C50.498 4.25505 50.568 4.1533 50.6158 4.04076C50.6636 3.92822 50.6883 3.8072 50.6883 3.68493C50.6883 3.56266 50.6636 3.44164 50.6158 3.3291C50.568 3.21656 50.498 3.11481 50.41 3.02993L48.9 1.50993C48.7258 1.33711 48.4904 1.24014 48.245 1.24014C47.9996 1.24014 47.7642 1.33711 47.59 1.50993V1.50993C47.4605 1.64036 47.2953 1.72951 47.1152 1.76611C46.9351 1.80271 46.7482 1.78513 46.5781 1.71558C46.4079 1.64604 46.2623 1.52765 46.1594 1.37536C46.0565 1.22307 46.001 1.04371 46 0.859932V0.859932C46 0.61328 45.902 0.376731 45.7276 0.202322C45.5532 0.0279135 45.3167 -0.0700684 45.07 -0.0700684H42.93C42.6833 -0.0700684 42.4468 0.0279135 42.2724 0.202322C42.098 0.376731 42 0.61328 42 0.859932V0.859932C41.999 1.04371 41.9435 1.22307 41.8406 1.37536C41.7377 1.52765 41.5921 1.64604 41.4219 1.71558C41.2518 1.78513 41.0649 1.80271 40.8848 1.76611C40.7047 1.72951 40.5395 1.64036 40.41 1.50993V1.50993C40.2358 1.33711 40.0004 1.24014 39.755 1.24014C39.5096 1.24014 39.2742 1.33711 39.1 1.50993L37.59 2.99993C37.502 3.08481 37.432 3.18656 37.3842 3.2991C37.3364 3.41164 37.3117 3.53266 37.3117 3.65493C37.3117 3.7772 37.3364 3.89822 37.3842 4.01076C37.432 4.1233 37.502 4.22505 37.59 4.30993V4.30993C37.721 4.44001 37.8104 4.60615 37.8467 4.78718C37.883 4.96822 37.8645 5.15596 37.7937 5.32649C37.723 5.49701 37.603 5.64261 37.4492 5.74474C37.2954 5.84686 37.1146 5.90089 36.93 5.89993C36.6833 5.89993 36.4468 5.99791 36.2724 6.17232C36.098 6.34673 36 6.58328 36 6.82993V8.99993C36 9.24658 36.098 9.48313 36.2724 9.65754C36.4468 9.83195 36.6833 9.92993 36.93 9.92993V9.92993C37.1126 9.93094 37.2908 9.98567 37.4425 10.0873C37.5942 10.1889 37.7126 10.333 37.783 10.5015C37.8534 10.6699 37.8726 10.8554 37.8383 11.0347C37.804 11.2141 37.7176 11.3793 37.59 11.5099C37.5017 11.5957 37.4315 11.6983 37.3836 11.8116C37.3356 11.925 37.3109 12.0468 37.3109 12.1699C37.3109 12.293 37.3356 12.4148 37.3836 12.5282C37.4315 12.6416 37.5017 12.7442 37.59 12.8299L39.1 14.3399C39.1849 14.4279 39.2866 14.4979 39.3992 14.5458C39.5117 14.5936 39.6327 14.6182 39.755 14.6182C39.8773 14.6182 39.9983 14.5936 40.1108 14.5458C40.2234 14.4979 40.3251 14.4279 40.41 14.3399V14.3399C40.5401 14.2089 40.7062 14.1195 40.8873 14.0833C41.0683 14.047 41.256 14.0654 41.4266 14.1362C41.5971 14.207 41.7427 14.3269 41.8448 14.4807C41.9469 14.6346 42.001 14.8153 42 14.9999C42 15.2466 42.098 15.4831 42.2724 15.6575C42.4468 15.8319 42.6833 15.9299 42.93 15.9299H45.07C45.3167 15.9299 45.5532 15.8319 45.7276 15.6575C45.902 15.4831 46 15.2466 46 14.9999C45.999 14.8153 46.0531 14.6346 46.1552 14.4807C46.2573 14.3269 46.4029 14.207 46.5734 14.1362C46.744 14.0654 46.9317 14.047 47.1127 14.0833C47.2938 14.1195 47.4599 14.2089 47.59 14.3399V14.3399C47.6749 14.4279 47.7766 14.4979 47.8892 14.5458C48.0017 14.5936 48.1227 14.6182 48.245 14.6182C48.3673 14.6182 48.4883 14.5936 48.6008 14.5458C48.7134 14.4979 48.8151 14.4279 48.9 14.3399L50.41 12.8299C50.4983 12.7442 50.5685 12.6416 50.6164 12.5282C50.6644 12.4148 50.6891 12.293 50.6891 12.1699C50.6891 12.0468 50.6644 11.925 50.6164 11.8116C50.5685 11.6983 50.4983 11.5957 50.41 11.5099C50.2824 11.3793 50.196 11.2141 50.1617 11.0347C50.1274 10.8554 50.1466 10.6699 50.217 10.5015C50.2874 10.333 50.4058 10.1889 50.5575 10.0873C50.7092 9.98567 50.8874 9.93094 51.07 9.92993V9.92993C51.3167 9.92993 51.5532 9.83195 51.7276 9.65754C51.902 9.48313 52 9.24658 52 8.99993V6.85993C52 6.61328 51.902 6.37673 51.7276 6.20232C51.5532 6.02791 51.3167 5.92993 51.07 5.92993V5.92993Z" fill="#F8CF6D"/>
<path d="M44 10.9299C45.6569 10.9299 47 9.58679 47 7.92993C47 6.27308 45.6569 4.92993 44 4.92993C42.3431 4.92993 41 6.27308 41 7.92993C41 9.58679 42.3431 10.9299 44 10.9299Z" fill="#FFFEFF"/>
<path d="M63 25V23C63 22.7348 62.8946 22.4804 62.7071 22.2929C62.5196 22.1054 62.2652 22 62 22H61.43C61.2132 22.012 60.9983 21.9532 60.8179 21.8323C60.6375 21.7114 60.5013 21.5351 60.43 21.33C60.341 21.1427 60.3125 20.9324 60.3483 20.7281C60.3841 20.5239 60.4826 20.3358 60.63 20.19L61.03 19.78C61.1237 19.687 61.1981 19.5764 61.2489 19.4546C61.2997 19.3327 61.3258 19.202 61.3258 19.07C61.3258 18.938 61.2997 18.8073 61.2489 18.6854C61.1981 18.5636 61.1237 18.453 61.03 18.36L59.63 16.96C59.537 16.8663 59.4264 16.7919 59.3046 16.7411C59.1827 16.6903 59.052 16.6642 58.92 16.6642C58.788 16.6642 58.6573 16.6903 58.5354 16.7411C58.4136 16.7919 58.303 16.8663 58.21 16.96L57.8 17.36C57.6542 17.5074 57.4661 17.6059 57.2619 17.6417C57.0576 17.6775 56.8473 17.649 56.66 17.56V17.56C56.4549 17.4887 56.2786 17.3525 56.1577 17.1721C56.0368 16.9917 55.978 16.7768 55.99 16.56V16C55.99 15.7348 55.8846 15.4804 55.6971 15.2929C55.5096 15.1054 55.2552 15 54.99 15H53C52.7348 15 52.4804 15.1054 52.2929 15.2929C52.1054 15.4804 52 15.7348 52 16V16.57C52.012 16.7868 51.9532 17.0017 51.8323 17.1821C51.7114 17.3625 51.5351 17.4987 51.33 17.57C51.1427 17.659 50.9324 17.6875 50.7281 17.6517C50.5239 17.6159 50.3358 17.5174 50.19 17.37L49.78 16.97C49.687 16.8763 49.5764 16.8019 49.4546 16.7511C49.3327 16.7003 49.202 16.6742 49.07 16.6742C48.938 16.6742 48.8073 16.7003 48.6854 16.7511C48.5636 16.8019 48.453 16.8763 48.36 16.97L46.96 18.37C46.8663 18.463 46.7919 18.5736 46.7411 18.6954C46.6903 18.8173 46.6642 18.948 46.6642 19.08C46.6642 19.212 46.6903 19.3427 46.7411 19.4646C46.7919 19.5864 46.8663 19.697 46.96 19.79L47.36 20.2C47.5074 20.3458 47.6059 20.5339 47.6417 20.7381C47.6775 20.9424 47.649 21.1527 47.56 21.34C47.4887 21.5451 47.3525 21.7214 47.1721 21.8423C46.9917 21.9632 46.7768 22.022 46.56 22.01H46C45.7348 22.01 45.4804 22.1154 45.2929 22.3029C45.1054 22.4904 45 22.7448 45 23.01V25.01C45 25.2752 45.1054 25.5296 45.2929 25.7171C45.4804 25.9046 45.7348 26.01 46 26.01H46.57C46.7868 25.998 47.0017 26.0568 47.1821 26.1777C47.3625 26.2986 47.4987 26.4749 47.57 26.68C47.659 26.8673 47.6875 27.0776 47.6517 27.2819C47.6159 27.4861 47.5174 27.6742 47.37 27.82L46.97 28.23C46.8763 28.323 46.8019 28.4336 46.7511 28.5554C46.7003 28.6773 46.6742 28.808 46.6742 28.94C46.6742 29.072 46.7003 29.2027 46.7511 29.3246C46.8019 29.4464 46.8763 29.557 46.97 29.65L48.37 31.05C48.463 31.1437 48.5736 31.2181 48.6954 31.2689C48.8173 31.3197 48.948 31.3458 49.08 31.3458C49.212 31.3458 49.3427 31.3197 49.4646 31.2689C49.5864 31.2181 49.697 31.1437 49.79 31.05L50.2 30.65C50.3458 30.5026 50.5339 30.4041 50.7381 30.3683C50.9424 30.3325 51.1527 30.361 51.34 30.45V30.45C51.5451 30.5213 51.7214 30.6575 51.8423 30.8379C51.9632 31.0183 52.022 31.2332 52.01 31.45V32C52.01 32.2652 52.1154 32.5196 52.3029 32.7071C52.4904 32.8946 52.7448 33 53.01 33H55.01C55.2752 33 55.5296 32.8946 55.7171 32.7071C55.9046 32.5196 56.01 32.2652 56.01 32V31.43C55.9979 31.2132 56.0568 30.9983 56.1777 30.8179C56.2986 30.6375 56.4749 30.5013 56.68 30.43C56.8673 30.341 57.0776 30.3125 57.2819 30.3483C57.4861 30.3841 57.6742 30.4826 57.82 30.63L58.23 31.03C58.323 31.1237 58.4336 31.1981 58.5554 31.2489C58.6773 31.2997 58.808 31.3258 58.94 31.3258C59.072 31.3258 59.2027 31.2997 59.3246 31.2489C59.4464 31.1981 59.557 31.1237 59.65 31.03L61.05 29.63C61.1437 29.537 61.2181 29.4264 61.2689 29.3046C61.3197 29.1827 61.3458 29.052 61.3458 28.92C61.3458 28.788 61.3197 28.6573 61.2689 28.5354C61.2181 28.4136 61.1437 28.303 61.05 28.21L60.65 27.8C60.5026 27.6542 60.4041 27.4661 60.3683 27.2619C60.3325 27.0576 60.361 26.8473 60.45 26.66C60.5213 26.4549 60.6575 26.2786 60.8379 26.1577C61.0183 26.0368 61.2332 25.978 61.45 25.99H62C62.2635 25.99 62.5163 25.886 62.7036 25.7007C62.8908 25.5153 62.9974 25.2635 63 25Z" fill="#EE7231"/>
<path d="M54 28C56.2091 28 58 26.2091 58 24C58 21.7909 56.2091 20 54 20C51.7909 20 50 21.7909 50 24C50 26.2091 51.7909 28 54 28Z" fill="#FFFEFF"/>
</g>
<defs>
<clipPath id="clip0_202_2">
<rect width="64" height="64" fill="white"/>
</clipPath>
</defs>
</svg>
