<svg width="32" height="32" viewBox="0 0 32 32" fill="none" xmlns="http://www.w3.org/2000/svg">
<path d="M29.446 26.1352C28.8095 23.9424 27.6482 21.9377 26.0626 20.2948C24.477 18.6518 22.5148 17.4201 20.346 16.7062C21.7945 15.7677 22.9007 14.3859 23.4993 12.7671C24.098 11.1483 24.1571 9.37927 23.6678 7.72413C23.1784 6.06899 22.167 4.61648 20.7843 3.58343C19.4016 2.55037 17.722 1.99219 15.996 1.99219C14.27 1.99219 12.5904 2.55037 11.2077 3.58343C9.82505 4.61648 8.81356 6.06899 8.32424 7.72413C7.83492 9.37927 7.894 11.1483 8.49267 12.7671C9.09134 14.3859 10.1975 15.7677 11.646 16.7062C9.47731 17.4203 7.51529 18.6522 5.9297 20.2951C4.34412 21.938 3.18272 23.9425 2.546 26.1352C2.41329 26.589 2.38876 27.0677 2.47437 27.5327C2.55998 27.9978 2.75336 28.4363 3.039 28.8132C3.31672 29.1845 3.67779 29.4853 4.0931 29.6915C4.5084 29.8977 4.96634 30.0034 5.43 30.0002H26.57C27.0325 30.0023 27.489 29.8961 27.903 29.6899C28.317 29.4838 28.677 29.1835 28.954 28.8132C29.2398 28.4364 29.4331 27.9978 29.5186 27.5327C29.604 27.0676 29.5792 26.5889 29.446 26.1352ZM10 10.0002C10 8.81348 10.3519 7.65344 11.0112 6.66674C11.6705 5.68005 12.6075 4.91101 13.7039 4.45689C14.8003 4.00276 16.0067 3.88394 17.1705 4.11545C18.3344 4.34697 19.4035 4.91841 20.2426 5.75752C21.0818 6.59664 21.6532 7.66574 21.8847 8.82962C22.1162 9.99351 21.9974 11.1999 21.5433 12.2963C21.0892 13.3926 20.3201 14.3297 19.3334 14.989C18.3467 15.6483 17.1867 16.0002 16 16.0002C14.4092 15.9986 12.884 15.3659 11.7591 14.2411C10.6342 13.1162 10.0016 11.591 10 10.0002ZM27.357 27.6082C27.2664 27.7313 27.1477 27.8311 27.0108 27.8992C26.874 27.9674 26.7229 28.002 26.57 28.0002H5.43C5.27712 28.002 5.12601 27.9674 4.98915 27.8992C4.8523 27.8311 4.73364 27.7313 4.643 27.6082C4.54497 27.4783 4.47879 27.3272 4.44978 27.167C4.42078 27.0069 4.42976 26.8422 4.476 26.6862C5.19297 24.1834 6.70528 21.982 8.7843 20.4149C10.8633 18.8479 13.396 18.0002 15.9995 18.0002C18.603 18.0002 21.1357 18.8479 23.2147 20.4149C25.2937 21.982 26.806 24.1834 27.523 26.6862C27.5696 26.8421 27.5789 27.0068 27.5501 27.167C27.5212 27.3272 27.4551 27.4783 27.357 27.6082Z" fill="url(#paint0_linear_203_19)"/>
<defs>
<linearGradient id="paint0_linear_203_19" x1="9.973" y1="33.0892" x2="25.477" y2="6.23617" gradientUnits="userSpaceOnUse">
<stop stop-color="#4C46C8"/>
<stop offset="1" stop-color="#87BFFF"/>
</linearGradient>
</defs>
</svg>
