<svg width="16" height="16" viewBox="0 0 16 16" fill="none" xmlns="http://www.w3.org/2000/svg">
<path d="M7.998 3C5.249 3 3 5.249 3 7.996C3 10.744 5.25 12.992 7.998 12.992C9.012 12.992 9.956 12.682 10.746 12.158L11.279 12.691C11.3697 12.7924 11.4801 12.8743 11.6034 12.9316C11.7268 12.9888 11.8606 13.0204 11.9966 13.0242C12.1326 13.028 12.2679 13.004 12.3943 12.9537C12.5207 12.9034 12.6355 12.8278 12.7317 12.7317C12.8278 12.6355 12.9034 12.5207 12.9537 12.3943C13.004 12.2679 13.028 12.1326 13.0242 11.9966C13.0204 11.8606 12.9888 11.7268 12.9316 11.6034C12.8743 11.4801 12.7924 11.3697 12.691 11.279L12.161 10.748C12.686 9.958 12.996 9.012 12.996 7.996C12.996 5.25 10.746 3 7.998 3ZM7.998 4.998C8.50497 4.99546 9.00423 5.12209 9.4487 5.36594C9.89318 5.60979 10.2682 5.96283 10.5385 6.39177C10.8087 6.8207 10.9653 7.3114 10.9934 7.8176C11.0214 8.32379 10.9201 8.8288 10.699 9.285C10.5123 9.10038 10.2605 8.99658 9.998 8.996C9.80122 8.99662 9.609 9.05529 9.4454 9.16465C9.28181 9.27401 9.15412 9.42921 9.07832 9.6108C9.00252 9.7924 8.98199 9.99232 9.01928 10.1855C9.05658 10.3787 9.15006 10.5567 9.288 10.697C8.896 10.882 8.463 10.994 7.998 10.994C7.60374 10.996 7.213 10.9198 6.84837 10.7698C6.48374 10.6199 6.15245 10.3991 5.87366 10.1203C5.59488 9.84155 5.37412 9.51026 5.22416 9.14563C5.0742 8.781 4.99801 8.39026 5 7.996C4.99801 7.60174 5.0742 7.211 5.22416 6.84637C5.37412 6.48174 5.59488 6.15045 5.87366 5.87166C6.15245 5.59288 6.48374 5.37212 6.84837 5.22216C7.213 5.0722 7.60374 4.99601 7.998 4.998Z" fill="white"/>
</svg>
